<svg width="12" height="21" viewBox="0 0 12 21" fill="none" xmlns="http://www.w3.org/2000/svg">
<path d="M5.52571 0.15C5.69524 0.15 5.85783 0.217348 5.97771 0.337228C6.09759 0.457108 6.16494 0.619699 6.16494 0.789235L6.16494 17.3632C6.16494 17.5327 6.09759 17.6953 5.97771 17.8152C5.85783 17.9351 5.69524 18.0024 5.52571 18.0024C5.35617 18.0024 5.19358 17.9351 5.0737 17.8152C4.95382 17.6953 4.88647 17.5327 4.88647 17.3632L4.88647 0.789235C4.88647 0.619699 4.95382 0.457107 5.0737 0.337228C5.19358 0.217348 5.35617 0.15 5.52571 0.15Z" fill="#54544A" stroke="white" stroke-width="0.3"/>
<path d="M10.7137 14.3037L10.714 14.304C10.7735 14.3634 10.8207 14.4339 10.8529 14.5116C10.8852 14.5892 10.9018 14.6725 10.9018 14.7565C10.9018 14.8406 10.8852 14.9239 10.8529 15.0015C10.8207 15.0792 10.7735 15.1497 10.714 15.2091L10.7138 15.2093L5.97842 19.9447L5.97828 19.9448C5.9189 20.0043 5.84836 20.0516 5.7707 20.0838C5.69304 20.116 5.60979 20.1326 5.5257 20.1326C5.44162 20.1326 5.35837 20.116 5.28071 20.0838C5.20305 20.0516 5.1325 20.0043 5.07313 19.9448L5.07299 19.9447L0.337583 15.2093C0.217517 15.0892 0.150064 14.9263 0.150064 14.7565C0.150064 14.5867 0.217517 14.4239 0.337584 14.3038C0.45765 14.1838 0.620497 14.1163 0.790297 14.1163C0.960087 14.1163 1.12292 14.1838 1.24299 14.3038C1.243 14.3038 1.243 14.3038 1.24301 14.3038L5.41962 18.482L5.5257 18.5882L5.63179 18.482L9.80842 14.3038L9.80853 14.3037C9.86791 14.2442 9.93845 14.1969 10.0161 14.1647C10.0938 14.1325 10.177 14.1159 10.2611 14.1159C10.3452 14.1159 10.4284 14.1325 10.5061 14.1647C10.5838 14.1969 10.6543 14.2442 10.7137 14.3037Z" fill="#54544A" stroke="white" stroke-width="0.3"/>
</svg>
