<svg width="165" height="35" viewBox="0 0 165 35" fill="none" xmlns="http://www.w3.org/2000/svg">
<path d="M51.099 24.19C50.3263 24.19 49.6043 23.9873 48.933 23.582C48.2617 23.164 47.736 22.6447 47.356 22.024V24H46.482V10.13H47.432V16.267C47.9007 15.583 48.4517 15.0257 49.085 14.595C49.731 14.1643 50.472 13.949 51.308 13.949C52.0047 13.949 52.6317 14.0947 53.189 14.386C53.7463 14.6773 54.2213 15.07 54.614 15.564C55.0067 16.058 55.3043 16.6153 55.507 17.236C55.7223 17.844 55.83 18.4647 55.83 19.098C55.83 19.7693 55.7097 20.4153 55.469 21.036C55.2283 21.644 54.8927 22.1887 54.462 22.67C54.0313 23.1387 53.531 23.5123 52.961 23.791C52.391 24.057 51.7703 24.19 51.099 24.19ZM50.909 23.335C51.6817 23.335 52.3657 23.1323 52.961 22.727C53.5563 22.309 54.0187 21.777 54.348 21.131C54.69 20.485 54.861 19.8073 54.861 19.098C54.861 18.3507 54.7027 17.654 54.386 17.008C54.0693 16.3493 53.626 15.8173 53.056 15.412C52.486 15.0067 51.8273 14.804 51.08 14.804C50.5227 14.804 50.0097 14.9307 49.541 15.184C49.0723 15.4247 48.6607 15.7477 48.306 16.153C47.9513 16.5457 47.66 16.97 47.432 17.426V20.694C47.47 21.0613 47.603 21.4033 47.831 21.72C48.0717 22.0367 48.363 22.3217 48.705 22.575C49.0597 22.8157 49.427 23.0057 49.807 23.145C50.1997 23.2717 50.567 23.335 50.909 23.335ZM57.2988 21.15C57.2988 20.5673 57.4698 20.0543 57.8118 19.611C58.1665 19.1677 58.6541 18.8257 59.2748 18.585C59.9081 18.3317 60.6301 18.205 61.4408 18.205C61.9475 18.205 62.4731 18.2493 63.0178 18.338C63.5751 18.4267 64.0628 18.547 64.4808 18.699V17.768C64.4808 16.856 64.2148 16.1277 63.6828 15.583C63.1508 15.0383 62.4288 14.766 61.5168 14.766C61.0228 14.766 60.5098 14.8673 59.9778 15.07C59.4458 15.2727 58.9011 15.564 58.3438 15.944L57.9448 15.26C59.2368 14.386 60.4591 13.949 61.6118 13.949C62.7771 13.949 63.7018 14.2973 64.3858 14.994C65.0825 15.6907 65.4308 16.6407 65.4308 17.844V22.746C65.4308 23.05 65.5701 23.2083 65.8488 23.221V24C65.6081 24.0253 65.4498 24.0317 65.3738 24.019C65.1331 23.9937 64.9431 23.8923 64.8038 23.715C64.6771 23.5377 64.6075 23.354 64.5948 23.164V22.385C64.1388 22.955 63.5498 23.3983 62.8278 23.715C62.1185 24.0317 61.3711 24.19 60.5858 24.19C59.9651 24.19 59.4015 24.057 58.8948 23.791C58.4008 23.5123 58.0081 23.145 57.7168 22.689C57.4381 22.233 57.2988 21.72 57.2988 21.15ZM64.1008 21.967C64.3541 21.6503 64.4808 21.3527 64.4808 21.074V19.44C63.5688 19.0853 62.5871 18.908 61.5358 18.908C60.5351 18.908 59.7308 19.1107 59.1228 19.516C58.5148 19.9087 58.2108 20.4343 58.2108 21.093C58.2108 21.511 58.3185 21.8973 58.5338 22.252C58.7491 22.6067 59.0468 22.8917 59.4268 23.107C59.8195 23.3223 60.2691 23.43 60.7758 23.43C61.4851 23.43 62.1375 23.297 62.7328 23.031C63.3281 22.7523 63.7841 22.3977 64.1008 21.967ZM68.3969 10.13H69.3659V22.043C69.3659 22.499 69.4609 22.8157 69.6509 22.993C69.8409 23.1577 70.0879 23.24 70.3919 23.24C70.5945 23.24 70.8035 23.221 71.0189 23.183C71.2342 23.145 71.4242 23.0943 71.5889 23.031L71.7789 23.81C71.5635 23.886 71.2975 23.9557 70.9809 24.019C70.6642 24.0823 70.3919 24.114 70.1639 24.114C69.6319 24.114 69.2012 23.9557 68.8719 23.639C68.5552 23.3097 68.3969 22.8727 68.3969 22.328V10.13ZM72.4209 21.15C72.4209 20.5673 72.5919 20.0543 72.9339 19.611C73.2885 19.1677 73.7762 18.8257 74.3969 18.585C75.0302 18.3317 75.7522 18.205 76.5629 18.205C77.0695 18.205 77.5952 18.2493 78.1399 18.338C78.6972 18.4267 79.1849 18.547 79.6029 18.699V17.768C79.6029 16.856 79.3369 16.1277 78.8049 15.583C78.2729 15.0383 77.5509 14.766 76.6389 14.766C76.1449 14.766 75.6319 14.8673 75.0999 15.07C74.5679 15.2727 74.0232 15.564 73.4659 15.944L73.0669 15.26C74.3589 14.386 75.5812 13.949 76.7339 13.949C77.8992 13.949 78.8239 14.2973 79.5079 14.994C80.2045 15.6907 80.5529 16.6407 80.5529 17.844V22.746C80.5529 23.05 80.6922 23.2083 80.9709 23.221V24C80.7302 24.0253 80.5719 24.0317 80.4959 24.019C80.2552 23.9937 80.0652 23.8923 79.9259 23.715C79.7992 23.5377 79.7295 23.354 79.7169 23.164V22.385C79.2609 22.955 78.6719 23.3983 77.9499 23.715C77.2405 24.0317 76.4932 24.19 75.7079 24.19C75.0872 24.19 74.5235 24.057 74.0169 23.791C73.5229 23.5123 73.1302 23.145 72.8389 22.689C72.5602 22.233 72.4209 21.72 72.4209 21.15ZM79.2229 21.967C79.4762 21.6503 79.6029 21.3527 79.6029 21.074V19.44C78.6909 19.0853 77.7092 18.908 76.6579 18.908C75.6572 18.908 74.8529 19.1107 74.2449 19.516C73.6369 19.9087 73.3329 20.4343 73.3329 21.093C73.3329 21.511 73.4405 21.8973 73.6559 22.252C73.8712 22.6067 74.1689 22.8917 74.5489 23.107C74.9415 23.3223 75.3912 23.43 75.8979 23.43C76.6072 23.43 77.2595 23.297 77.8549 23.031C78.4502 22.7523 78.9062 22.3977 79.2229 21.967ZM91.5179 24H90.5679V18.49C90.5679 17.2233 90.3843 16.2987 90.0169 15.716C89.6496 15.1207 89.0796 14.823 88.3069 14.823C87.7496 14.823 87.2049 14.956 86.6729 15.222C86.1409 15.488 85.6723 15.8553 85.2669 16.324C84.8616 16.78 84.5703 17.2993 84.3929 17.882V24H83.4429V14.12H84.3359V16.476C84.7286 15.7287 85.3113 15.1207 86.0839 14.652C86.8693 14.1833 87.6989 13.949 88.5729 13.949C89.6496 13.949 90.4096 14.329 90.8529 15.089C91.2963 15.849 91.5179 16.9257 91.5179 18.319V24ZM98.5892 24.19C97.6645 24.19 96.8349 23.9557 96.1002 23.487C95.3655 23.0183 94.7829 22.3913 94.3522 21.606C93.9215 20.8207 93.7062 19.9593 93.7062 19.022C93.7062 18.0847 93.9152 17.236 94.3332 16.476C94.7512 15.7033 95.3275 15.089 96.0622 14.633C96.7969 14.177 97.6329 13.949 98.5702 13.949C99.4695 13.949 100.261 14.158 100.945 14.576C101.629 14.9813 102.142 15.5387 102.484 16.248L101.553 16.552C101.262 16.0073 100.844 15.583 100.299 15.279C99.7672 14.9623 99.1782 14.804 98.5322 14.804C97.8102 14.804 97.1579 14.994 96.5752 15.374C95.9925 15.7413 95.5239 16.2417 95.1692 16.875C94.8272 17.5083 94.6562 18.224 94.6562 19.022C94.6562 19.82 94.8335 20.5483 95.1882 21.207C95.5429 21.853 96.0115 22.3723 96.5942 22.765C97.1895 23.145 97.8419 23.335 98.5512 23.335C99.0072 23.335 99.4505 23.2527 99.8812 23.088C100.325 22.9107 100.705 22.6827 101.021 22.404C101.351 22.1253 101.566 21.8277 101.667 21.511L102.598 21.777C102.434 22.2457 102.149 22.6637 101.743 23.031C101.351 23.3857 100.882 23.6707 100.337 23.886C99.7925 24.0887 99.2099 24.19 98.5892 24.19ZM108.85 24.19C107.925 24.19 107.089 23.9557 106.342 23.487C105.607 23.0183 105.025 22.3913 104.594 21.606C104.176 20.8207 103.967 19.9593 103.967 19.022C103.967 18.0973 104.176 17.255 104.594 16.495C105.012 15.7223 105.588 15.108 106.323 14.652C107.058 14.1833 107.881 13.949 108.793 13.949C109.73 13.949 110.56 14.1833 111.282 14.652C112.017 15.108 112.593 15.7223 113.011 16.495C113.429 17.2677 113.638 18.11 113.638 19.022C113.638 19.174 113.632 19.3133 113.619 19.44H104.955C105.006 20.2 105.215 20.884 105.582 21.492C105.949 22.0873 106.418 22.5623 106.988 22.917C107.571 23.259 108.204 23.43 108.888 23.43C109.572 23.43 110.218 23.2527 110.826 22.898C111.434 22.5433 111.858 22.0873 112.099 21.53L112.935 21.758C112.745 22.2267 112.441 22.6447 112.023 23.012C111.618 23.3793 111.136 23.6707 110.579 23.886C110.034 24.0887 109.458 24.19 108.85 24.19ZM104.917 18.699H112.726C112.675 17.9263 112.466 17.2423 112.099 16.647C111.744 16.039 111.282 15.5703 110.712 15.241C110.142 14.899 109.509 14.728 108.812 14.728C108.115 14.728 107.482 14.899 106.912 15.241C106.342 15.583 105.88 16.058 105.525 16.666C105.17 17.2613 104.968 17.939 104.917 18.699Z" fill="#54544A"/>
<path fill-rule="evenodd" clip-rule="evenodd" d="M0.800081 16.3333C0.800091 11.0682 5.06831 6.8 10.3334 6.8C15.5985 6.8 19.8667 11.0682 19.8667 16.3333H20.6667C20.6667 10.6264 16.0404 6 10.3334 6C4.62648 6 9.15527e-05 10.6264 8.2016e-05 16.3333H0.800081Z" fill="#54544A"/>
<path fill-rule="evenodd" clip-rule="evenodd" d="M11.1333 16.3334C11.1333 21.5985 15.4016 25.8667 20.6667 25.8667C25.9318 25.8667 30.2 21.5985 30.2 16.3334H31C31 22.0403 26.3736 26.6667 20.6667 26.6667C14.9597 26.6667 10.3333 22.0403 10.3333 16.3334H11.1333Z" fill="#54544A"/>
<line y1="-0.4" x2="31" y2="-0.4" transform="matrix(-1 0 0 1 31 17)" stroke="#54544A" stroke-width="0.8"/>
</svg>
